<svg xmlns="http://www.w3.org/2000/svg" width="1024" height="1024" viewBox="0 0 1024 1024" version="1.1"><path d="M 0 63.469 C 0 123.478, 0.095 126.904, 1.750 126.334 C 3.410 125.762, 3.410 125.802, 1.744 127.115 C 0.074 128.433, 0.001 150.171, 0.244 573.500 C 0.500 1018.500, 0.500 1018.500, 108.500 910.491 C 167.900 851.087, 230.225 789.228, 247 773.028 C 263.775 756.828, 278.573 742.207, 279.884 740.537 C 281.195 738.867, 282.018 738.233, 281.712 739.129 C 281.406 740.025, 279.790 746.325, 278.120 753.129 C 276.450 759.933, 274.166 768.158, 273.042 771.407 C 271.919 774.655, 271 777.671, 271 778.109 C 271 778.547, 295.407 778.814, 325.237 778.702 C 379.475 778.500, 379.475 778.500, 380.124 774 C 380.969 768.137, 385.248 754.113, 390.118 741.241 C 392.253 735.598, 394 730.071, 394 728.959 C 394 726.108, 396.276 725.574, 400.070 727.536 C 410.482 732.920, 443.530 742.011, 465.500 745.534 C 488.087 749.155, 533.269 748.966, 551 745.176 C 576.890 739.641, 583.197 737.969, 587.342 735.540 C 591.799 732.928, 591.799 732.928, 596.584 741.714 C 599.216 746.546, 602.621 752.476, 604.150 754.891 C 606.908 759.246, 610.611 769.254, 611.196 773.933 C 611.410 775.642, 612.392 776.635, 614.500 777.273 C 616.150 777.772, 641.012 778.304, 669.750 778.456 C 712.681 778.683, 722 778.495, 722 777.403 C 722 776.672, 721.161 773.920, 720.136 771.287 C 719.111 768.654, 714.337 754.800, 709.527 740.501 C 704.717 726.201, 699.426 711.126, 697.770 707.001 C 696.114 702.875, 693.062 694.721, 690.988 688.879 C 687.217 678.258, 687.217 678.258, 692.359 675.945 C 721.955 662.626, 757.723 629.208, 779.411 594.611 C 789.680 578.230, 800.519 555.266, 805.661 539 C 808.395 530.350, 813.861 507.413, 815.669 497 C 817.097 488.775, 817.493 481.193, 817.495 462 C 817.498 435.844, 817.032 431.932, 810.364 402.048 C 806.170 383.251, 798.608 362.962, 787.984 342 C 781.730 329.661, 767.747 307.558, 761.637 300.354 C 758.774 296.978, 758.774 296.978, 768.637 286.312 C 778.377 275.778, 825.180 229.112, 930.500 124.921 C 960.200 95.539, 993.275 62.725, 1004 52 C 1023.500 32.500, 1023.500 32.500, 1024.015 79.500 C 1024.530 126.500, 1024.530 126.500, 1024.765 63.250 C 1025 0, 1025 0, 512.500 0 C 0 0, 0 0, 0 63.469 M 0.409 64 C 0.468 127.500, 0.468 127.500, 0.984 69 C 1.268 36.825, 1.907 9.868, 2.405 9.095 C 3.013 8.151, 2.950 7.913, 2.213 8.368 C 1.502 8.808, 0.982 7.545, 0.733 4.773 C 0.522 2.423, 0.376 29.075, 0.409 64 M 522.525 220.750 C 526.860 233.500, 526.860 233.500, 538.680 234.191 C 545.181 234.571, 553.633 235.338, 557.462 235.896 C 561.291 236.453, 564.519 236.815, 564.634 236.699 C 565.124 236.209, 565.288 211.954, 564.804 211.471 C 563.655 210.322, 539.962 208, 529.382 208 C 518.189 208, 518.189 208, 522.525 220.750 M 414.765 214.059 C 380.996 224.275, 343.163 245.168, 315.689 268.774 C 268.374 309.426, 239.221 360.320, 225.340 426.500 C 222.757 438.815, 222.610 440.975, 222.557 467.500 C 222.518 486.580, 222.923 497.889, 223.828 503 C 227.157 521.806, 233.547 542.670, 242.553 564.151 C 252.842 588.689, 278.943 625.328, 299.765 644.464 C 302.661 647.125, 305.281 649.052, 305.587 648.747 C 305.892 648.441, 307.875 642.884, 309.992 636.399 C 313.841 624.606, 313.841 624.606, 309.367 619.553 C 288.412 595.885, 276.289 578.610, 266.518 558.500 C 251.629 527.857, 245.200 497.854, 246.286 464.093 C 247.636 422.145, 260.726 381.503, 285.771 341.500 C 296.200 324.842, 304.664 314.253, 318.689 300.315 C 331.689 287.396, 339.789 280.742, 355.353 270.201 C 367.534 261.949, 401.477 244.988, 411.239 242.274 C 414.524 241.361, 417.348 240.138, 417.516 239.557 C 418.788 235.154, 425.406 213.244, 425.764 212.250 C 426.361 210.593, 426.058 210.643, 414.765 214.059 M 444.992 212.172 C 444.974 214.984, 425.673 277.678, 411.027 322.500 C 403.022 346.997, 396.428 367.607, 388.149 394 C 383.050 410.259, 379.920 422.061, 380.472 422.954 C 381.277 424.257, 396.239 432.795, 398.374 433.171 C 400.964 433.626, 405.542 422.550, 412.064 400.051 C 414.862 390.398, 421.655 369.225, 427.159 353 C 432.663 336.775, 439.647 315.625, 442.678 306 C 445.710 296.375, 448.366 288.318, 448.582 288.097 C 449.156 287.505, 457.642 306.093, 458.424 309.656 C 458.871 311.691, 458.423 314.390, 457.066 317.833 C 455.952 320.660, 454.126 327.367, 453.010 332.736 C 451.127 341.795, 447.979 351.941, 431.831 401 C 426.519 417.137, 422.071 432.154, 422.017 434.131 C 422.008 434.477, 426.837 435.091, 432.750 435.494 C 438.663 435.897, 443.690 436.288, 443.921 436.363 C 445.256 436.797, 455.609 406.907, 462.578 382.500 C 466.122 370.090, 472.168 352.310, 473.890 349.231 C 474.463 348.208, 475.514 349.793, 477.477 354.642 C 481.517 364.620, 490.220 388.050, 496.926 407 C 500.137 416.075, 503.944 426.425, 505.386 430 C 508.008 436.500, 508.008 436.500, 519.504 436.189 C 525.827 436.019, 531 435.528, 531 435.099 C 531 432.111, 526.386 417.433, 522.452 407.904 C 517.996 397.113, 514.157 386.772, 506.526 365 C 500.781 348.607, 496.298 336.716, 493.522 330.500 C 490.697 324.177, 487.940 317.015, 479.898 295.118 C 471.727 272.866, 466.723 260.733, 463.788 256.054 C 460.453 250.736, 460.357 248.794, 463.072 241.538 C 465.144 236, 465.144 236, 473.875 236 C 482.606 236, 482.606 236, 484.929 243.250 C 487.375 250.885, 501.628 289.792, 512.497 318.500 C 516.037 327.850, 520.944 341.125, 523.401 348 C 525.858 354.875, 531.064 368.967, 534.970 379.315 C 542.072 398.130, 542.072 398.130, 537.536 404.164 C 532.432 410.954, 531.824 412.816, 535.500 410.408 C 536.875 409.507, 538 408.383, 538 407.911 C 538 407.438, 539.313 406.372, 540.918 405.542 C 543.836 404.033, 543.836 404.033, 546.579 411.267 C 557.149 439.143, 554.885 436.535, 568.213 436.190 C 580.200 435.879, 580.200 435.879, 579.519 432.190 C 579.145 430.160, 575.897 421.075, 572.302 412 C 568.706 402.925, 564.412 391.225, 562.760 386 C 561.108 380.775, 555.936 365.925, 551.266 353 C 546.596 340.075, 540.185 322.300, 537.020 313.500 C 533.855 304.700, 528.978 291.611, 526.184 284.414 C 523.389 277.217, 519.096 265.517, 516.644 258.414 C 514.192 251.311, 510.406 241, 508.231 235.500 C 506.056 230, 503.093 222.350, 501.646 218.500 C 499.015 211.500, 499.015 211.500, 472.007 211.172 C 450.063 210.906, 444.998 211.093, 444.992 212.172 M 583.491 259.746 C 583.081 286.556, 583.156 331.444, 583.659 359.496 C 584.572 410.500, 584.572 410.500, 588.786 418.728 C 591.383 423.798, 593 428.307, 593 430.478 C 593 434, 593 434, 605.250 433.985 C 619.964 433.967, 627.198 432.431, 637.897 427.052 C 642.241 424.867, 647.913 422.547, 650.500 421.896 C 655.204 420.711, 655.204 420.711, 654.852 316.819 C 654.544 225.817, 654.314 212.809, 653 211.979 C 652.133 211.431, 637.312 211.024, 617.869 211.015 C 584.237 211, 584.237 211, 583.491 259.746 M 608.245 322.250 C 608.500 409.500, 608.500 409.500, 614 409.281 C 617.025 409.160, 621.750 408.485, 624.500 407.781 C 629.500 406.500, 629.500 406.500, 629.807 334 C 629.976 294.125, 629.817 255.537, 629.454 248.250 C 628.795 235, 628.795 235, 618.392 235 C 607.989 235, 607.989 235, 608.245 322.250 M 675 259.375 C 675 265.081, 674.733 271.084, 674.407 272.714 C 673.868 275.410, 674.300 276.024, 679.157 279.475 C 693.048 289.343, 707.444 301.934, 716.558 312.185 C 732.765 330.415, 732.049 327.838, 723.394 336.813 C 715.980 344.500, 715.980 344.500, 712.740 340.512 C 703.493 329.132, 692.058 317.439, 684.903 312.048 C 680.489 308.722, 676.505 306, 676.050 306 C 675.595 306, 675.020 312.637, 674.773 320.750 C 674.325 335.500, 674.325 335.500, 679.479 341 C 687.525 349.586, 701.263 365.987, 705.023 371.495 C 708.753 376.958, 719.455 400.765, 722.799 411.037 C 732.060 439.484, 731.671 482.968, 721.893 512.163 C 715.687 530.695, 706.429 546.520, 694.572 558.862 C 673.480 580.819, 654.699 588.376, 618 589.672 C 601.354 590.261, 601.285 590.251, 579.208 584.121 C 567.003 580.733, 566.618 580.548, 535.554 563.215 C 529.398 559.780, 521.500 554.099, 514.828 548.306 C 504.047 538.947, 504.047 538.947, 490.598 539.622 C 474.881 540.411, 475.059 538.921, 488.678 555.644 C 497.886 566.952, 506.733 574.518, 524.500 586.280 C 541.094 597.266, 549.439 601.229, 567.030 606.477 C 591.706 613.838, 599.925 615.218, 620 615.369 C 635.998 615.489, 638.374 615.271, 647.688 612.829 C 660.192 609.551, 676.240 603.200, 684.396 598.301 C 718.970 577.535, 744.088 539.096, 751.570 495.500 C 753.804 482.477, 754.497 456.788, 753.041 440.909 C 750.806 416.539, 744.898 397.270, 731.214 369.721 C 722.776 352.734, 721.867 350.431, 724.297 352.184 C 728.110 354.937, 734.320 355.676, 737.288 353.731 C 741.290 351.109, 744.461 352.583, 748.301 358.851 C 773.144 399.408, 781.314 461.848, 768.472 513 C 760.501 544.747, 743.612 574.703, 718.222 602.127 C 708.389 612.748, 689.090 625.968, 678.235 629.518 C 675.339 630.465, 672.712 631.657, 672.398 632.166 C 672.083 632.675, 673.890 637.805, 676.413 643.566 C 678.936 649.327, 681 654.706, 681 655.520 C 681 658.004, 684.097 657.176, 693.500 652.179 C 738.911 628.047, 779.019 573.630, 791.980 518.564 C 797.173 496.502, 797.502 493.208, 797.475 463.500 C 797.451 437.223, 797.274 434.516, 794.609 419.500 C 791.190 400.247, 787.652 387.962, 780.350 370 C 764.905 332.004, 743.092 300.884, 713.555 274.700 C 703.248 265.564, 698.374 261.957, 683.765 252.652 C 675.104 247.136, 675 247.215, 675 259.375 M 535.169 256.601 C 541.506 269.701, 543.205 273.771, 544.184 278.195 C 544.830 281.113, 545.487 283.672, 545.646 283.883 C 545.963 284.307, 561.617 286.948, 564 286.980 C 565.272 286.997, 565.403 285.596, 564.859 277.750 C 564.507 272.663, 564.449 266.828, 564.731 264.784 C 565.363 260.214, 564.369 259.709, 551.500 258.060 C 546.550 257.426, 540.753 256.636, 538.617 256.304 C 536.442 255.967, 534.925 256.097, 535.169 256.601 M 403.500 272.057 C 367.410 288.494, 354.054 296.921, 331.271 317.632 C 322.598 325.516, 307.908 343.179, 299.081 356.335 C 284.358 378.280, 271.836 412.045, 266.404 444.453 C 264.046 458.518, 264.889 482.667, 268.379 501 C 275.273 537.217, 292.664 573.045, 314.395 595.799 C 320.410 602.097, 320.410 602.097, 324.159 590.799 C 326.221 584.584, 327.929 578.439, 327.954 577.142 C 327.981 575.779, 325.946 572.192, 323.133 568.642 C 313.364 556.314, 301.025 531.775, 295.659 514 C 291.297 499.554, 290.500 492.834, 290.500 470.500 C 290.500 446.087, 291.724 438.857, 300.145 413.500 C 308.019 389.793, 316.707 372.965, 329.631 356.383 C 336.518 347.547, 355.567 328.743, 364.745 321.721 C 371.674 316.420, 387.472 307.091, 394.836 303.954 C 400.395 301.585, 402 299.379, 402 294.110 C 402 292.592, 403.382 286.728, 405.072 281.080 C 406.762 275.432, 407.999 270.681, 407.822 270.523 C 407.645 270.365, 405.700 271.055, 403.500 272.057 M 372.458 361.332 C 364.275 365.704, 360.798 368.219, 351.680 376.358 C 337.456 389.055, 330.328 401.580, 326.419 420.745 C 322.371 440.589, 323.491 457.405, 329.933 473.491 C 333.882 483.355, 337.330 488.267, 345.825 496.132 C 357.395 506.844, 369.116 512.590, 391.500 518.522 C 401.219 521.097, 448.919 521.909, 539.500 521.041 C 617.216 520.297, 621.970 520.148, 630.500 518.190 C 654.981 512.573, 667.733 506.283, 680.535 493.513 C 688.422 485.645, 690.221 483.166, 694.688 474 C 704.422 454.025, 705.093 446.458, 699.531 419.385 C 695.623 400.370, 692.072 391.904, 684.118 382.644 C 679.785 377.600, 676.162 374.453, 675.526 375.181 C 675.373 375.356, 674.735 383.877, 674.110 394.115 C 672.858 414.608, 671.578 420.427, 666.741 427.622 C 662.687 433.650, 649.458 442.849, 639 446.910 C 621.642 453.651, 626.916 453.358, 516 453.745 C 446.391 453.988, 413.502 453.760, 409 453.003 C 378.271 447.836, 357 430.774, 357 411.291 C 357 403.995, 358.402 400.652, 364.249 394 C 369.520 388.005, 371.474 383.955, 373.942 373.913 C 375.079 369.286, 376.755 364.035, 377.665 362.244 C 378.576 360.453, 379.127 358.794, 378.890 358.557 C 378.653 358.320, 375.759 359.568, 372.458 361.332 M 469.724 419.750 C 467.419 424.950, 465.020 432.323, 465.006 434.250 C 465.003 434.663, 470.175 435, 476.500 435 C 484.124 435, 488 434.633, 488 433.911 C 488 433.313, 485.967 428.588, 483.483 423.411 C 479.112 414.304, 478.858 414, 475.620 414 C 472.508 414, 472.094 414.403, 469.724 419.750 M 347.546 451.334 C 351.500 475.102, 372.379 491.074, 406 496.049 C 416.180 497.556, 603.825 497.401, 616.496 495.875 C 627.866 494.507, 640.155 490.961, 650.773 485.985 C 665.332 479.163, 675.328 466.717, 676.603 453.827 C 676.998 449.828, 676.863 448.915, 676.062 450.166 C 674.489 452.621, 663.118 461.422, 658.495 463.763 C 650.969 467.574, 636.509 473.097, 628.500 475.221 C 620.690 477.292, 618.142 477.358, 521 477.988 C 466.275 478.344, 416.100 478.248, 409.500 477.776 C 393.376 476.622, 386.415 474.874, 374.129 468.895 C 365.384 464.638, 362.434 462.539, 355.306 455.507 C 346.852 447.167, 346.852 447.167, 347.546 451.334 M 698.500 501.743 C 687.143 514.034, 678.283 520.964, 665.227 527.771 C 658.611 531.220, 652.929 534.744, 652.599 535.602 C 651.610 538.181, 651.924 557.670, 653.001 560.502 C 654.125 563.460, 655.440 563.362, 662.500 559.794 C 674.529 553.716, 692.541 537.602, 699.393 526.788 C 706.628 515.370, 711.794 493.867, 707.250 494.084 C 706.288 494.130, 702.350 497.576, 698.500 501.743 M 360.737 528.750 C 360.463 529.712, 357.214 540.625, 353.516 553 C 349.817 565.375, 344.422 584.050, 341.526 594.500 C 338.631 604.950, 334.646 618.675, 332.671 625 C 330.697 631.325, 327.085 643.700, 324.644 652.500 C 322.204 661.300, 317.642 677.050, 314.506 687.500 C 311.370 697.950, 307.287 712.125, 305.434 719 C 303.580 725.875, 300.316 737.477, 298.180 744.783 C 296.045 752.088, 294.568 758.221, 294.899 758.410 C 296.084 759.089, 339.224 759.107, 350.747 758.433 C 362.508 757.745, 362.508 757.745, 372.723 726.623 C 378.342 709.505, 385.464 686.725, 388.550 676 C 391.636 665.275, 397.957 643.846, 402.596 628.379 C 411.064 600.143, 424.589 550.542, 426.290 541.487 C 426.855 538.473, 426.855 538.473, 415.678 538.828 C 408.976 539.041, 404.050 539.647, 403.375 540.341 C 402.163 541.590, 394.242 568.111, 388.544 590 C 382.425 613.505, 379.401 624.269, 376.605 632.500 C 375.110 636.900, 373.010 644.239, 371.939 648.809 C 370.867 653.378, 369.327 658.401, 368.515 659.971 C 365.877 665.073, 340.973 687.146, 341.012 684.348 C 341.043 682.119, 346.460 662.049, 350.416 649.512 C 356.877 629.028, 360.252 617.555, 365.420 598.500 C 367.956 589.150, 371.590 576.550, 373.497 570.500 C 375.404 564.450, 378.340 554.550, 380.022 548.500 C 381.704 542.450, 383.298 536.772, 383.565 535.882 C 383.951 534.597, 383.027 534.129, 379.074 533.604 C 376.336 533.241, 371.554 531.607, 368.447 529.972 C 361.849 526.502, 361.395 526.430, 360.737 528.750 M 550 539.088 C 550 541.354, 559.237 563.573, 560.831 565.142 C 561.797 566.091, 566.504 567.491, 572 568.462 C 577.225 569.385, 582.488 570.376, 583.696 570.665 C 585.790 571.165, 585.844 571.012, 584.876 567.345 C 584.318 565.230, 582.351 559.450, 580.506 554.500 C 578.660 549.550, 576.576 543.813, 575.874 541.750 C 574.598 538, 574.598 538, 562.299 538 C 554.104 538, 550 538.363, 550 539.088 M 611.295 539.021 C 605.133 539.326, 599.883 539.784, 599.629 540.038 C 598.287 541.380, 611.361 575.920, 614.754 580 C 614.983 580.275, 620.306 580.500, 626.583 580.500 C 632.859 580.500, 637.991 580.275, 637.986 580 C 637.936 577.143, 624.532 540.025, 623.174 538.983 C 622.803 538.699, 617.458 538.716, 611.295 539.021 M 442.310 553.410 C 436.630 564.819, 436.630 564.819, 443.739 573.193 C 456.325 588.018, 473.239 602.347, 494.650 616.326 C 517.915 631.514, 532.225 638.745, 553.883 646.253 C 586.910 657.704, 582.179 653.656, 592.731 679.500 C 597.896 692.150, 605.878 711.950, 610.468 723.500 C 618.814 744.499, 624.029 757.257, 624.478 757.775 C 625.170 758.573, 670.326 759.175, 681.348 758.534 C 694.196 757.787, 694.196 757.787, 693.726 755.144 C 693.468 753.690, 689.790 742.825, 685.553 731 C 677.612 708.838, 667.720 680.878, 658.410 654.280 C 655.480 645.909, 652.346 637.635, 651.445 635.894 C 649.808 632.729, 649.808 632.729, 643.154 633.361 C 625.019 635.083, 605.444 635.222, 597.500 633.684 C 587.931 631.832, 555.911 621.691, 544 616.741 C 513.127 603.910, 477.602 577.702, 464.194 557.863 C 459.789 551.346, 451.069 542, 449.394 542 C 448.601 542, 445.514 546.971, 442.310 553.410 M 450.461 620.154 C 445.847 624.638, 442.296 628.671, 442.571 629.115 C 443.640 630.845, 465.724 637.149, 475.351 638.472 C 487.744 640.176, 500 641.216, 500 640.565 C 500 640.300, 494.181 636.258, 487.068 631.582 C 479.955 626.907, 470.909 620.588, 466.965 617.541 C 463.020 614.493, 459.581 612, 459.322 612 C 459.063 612, 455.076 615.669, 450.461 620.154 M 416.662 650.238 C 414.648 655.950, 413 660.957, 413 661.364 C 413 662.783, 426.601 668.459, 441.500 673.258 C 449.750 675.915, 454.700 677.824, 452.500 677.499 C 450.300 677.175, 445.125 676.665, 441 676.367 C 433.500 675.824, 433.500 675.824, 426.750 680.160 C 422.634 682.804, 420 685.179, 420 686.248 C 420 687.211, 420.525 688, 421.167 688 C 421.808 688, 422.071 688.263, 421.750 688.584 C 421.011 689.323, 412.137 685.434, 409.860 683.374 C 408.272 681.936, 408.003 682.284, 406.164 688.162 C 405.073 691.648, 403.240 696.969, 402.090 699.986 C 400.941 703.003, 400 705.967, 400 706.573 C 400 707.733, 411.737 711.967, 428.537 716.868 C 440.393 720.327, 465.806 725.501, 478.500 727.040 C 490.688 728.518, 528.618 728.527, 538.500 727.054 C 550.705 725.234, 583.226 717.955, 585.141 716.614 C 586.699 715.523, 586.524 714.669, 582.978 706.073 C 580.856 700.928, 578.687 696.287, 578.160 695.760 C 577.547 695.147, 575.267 695.352, 571.850 696.327 C 568.907 697.168, 564.250 698.140, 561.500 698.489 C 558.750 698.838, 550.840 699.997, 543.923 701.065 C 530.508 703.135, 520.558 703.651, 501.789 703.250 C 490.078 703, 490.078 703, 489.789 694.277 C 489.524 686.285, 489.305 685.456, 487.172 684.396 C 485.334 683.482, 491.017 683.129, 514.172 682.722 C 542.277 682.227, 544.013 682.082, 555.797 679.256 C 562.560 677.634, 568.530 675.870, 569.062 675.338 C 570.934 673.466, 563.912 667.268, 557 664.689 C 538.850 657.917, 541.284 658.219, 514.500 659.417 C 499.836 660.072, 494.113 659.908, 483.621 658.529 C 467.948 656.469, 449.860 651.627, 434.776 645.455 C 428.574 642.917, 422.786 640.618, 421.912 640.346 C 420.671 639.960, 419.526 642.119, 416.662 650.238 M 611.808 657 C 609.116 657.500, 609.116 657.500, 612.902 667.500 C 618.662 682.717, 625.183 696.217, 626.255 695.145 C 626.829 694.571, 626.775 693.448, 626.115 692.214 C 624.635 689.449, 627.422 686.103, 635.086 681.448 C 640.811 677.970, 641.078 677.633, 640.436 674.709 C 640.064 673.016, 638.306 668.226, 636.528 664.065 C 633.297 656.500, 633.297 656.500, 623.898 656.500 C 618.729 656.500, 613.289 656.725, 611.808 657" stroke="none" fill="#dedfdd" fill-rule="evenodd"/><path d="M 1003.715 52.048 C 993.147 62.747, 960.200 95.539, 930.500 124.921 C 825.180 229.112, 778.377 275.778, 768.637 286.312 C 758.774 296.978, 758.774 296.978, 761.637 300.354 C 767.747 307.558, 781.730 329.661, 787.984 342 C 798.608 362.962, 806.170 383.251, 810.364 402.048 C 817.032 431.932, 817.498 435.844, 817.495 462 C 817.493 481.193, 817.097 488.775, 815.669 497 C 813.861 507.413, 808.395 530.350, 805.661 539 C 800.519 555.266, 789.680 578.230, 779.411 594.611 C 757.723 629.208, 721.955 662.626, 692.359 675.945 C 687.217 678.258, 687.217 678.258, 690.988 688.879 C 693.062 694.721, 696.114 702.875, 697.770 707.001 C 699.426 711.126, 704.717 726.201, 709.527 740.501 C 714.337 754.800, 719.111 768.654, 720.136 771.287 C 721.161 773.920, 722 776.672, 722 777.403 C 722 778.495, 712.681 778.683, 669.750 778.456 C 641.013 778.304, 616.150 777.772, 614.500 777.273 C 612.392 776.635, 611.410 775.642, 611.196 773.933 C 610.611 769.254, 606.908 759.246, 604.150 754.891 C 602.621 752.476, 599.216 746.546, 596.584 741.714 C 591.799 732.928, 591.799 732.928, 587.342 735.540 C 583.197 737.969, 576.890 739.641, 551 745.176 C 533.269 748.966, 488.087 749.155, 465.500 745.534 C 443.530 742.011, 410.482 732.920, 400.070 727.536 C 396.276 725.574, 394 726.108, 394 728.959 C 394 730.071, 392.253 735.598, 390.118 741.241 C 385.248 754.113, 380.969 768.137, 380.124 774 C 379.475 778.500, 379.475 778.500, 325.237 778.702 C 295.407 778.814, 271 778.547, 271 778.109 C 271 777.671, 271.919 774.655, 273.042 771.407 C 274.166 768.158, 276.450 759.933, 278.120 753.129 C 279.790 746.325, 281.406 740.025, 281.712 739.129 C 282.018 738.233, 281.195 738.867, 279.884 740.537 C 278.573 742.207, 263.775 756.829, 247 773.030 C 230.225 789.231, 167.787 851.243, 108.250 910.834 C 24.510 994.651, -0 1019.728, -0 1021.592 C -0 1024.002, -0 1024.002, 512.013 1023.751 C 1024.025 1023.500, 1024.025 1023.500, 1024.009 528.580 C 1024 256.374, 1023.754 33.421, 1023.462 33.128 C 1023.169 32.836, 1014.283 41.350, 1003.715 52.048 M 522.525 220.750 C 526.860 233.500, 526.860 233.500, 538.680 234.191 C 545.181 234.571, 553.633 235.338, 557.462 235.896 C 561.291 236.453, 564.519 236.815, 564.634 236.699 C 565.124 236.209, 565.288 211.954, 564.804 211.471 C 563.655 210.322, 539.962 208, 529.382 208 C 518.189 208, 518.189 208, 522.525 220.750 M 414.765 214.059 C 380.996 224.275, 343.163 245.168, 315.689 268.774 C 268.374 309.426, 239.221 360.320, 225.340 426.500 C 222.757 438.815, 222.610 440.975, 222.557 467.500 C 222.518 486.580, 222.923 497.889, 223.828 503 C 227.157 521.806, 233.547 542.670, 242.553 564.151 C 252.842 588.689, 278.943 625.328, 299.765 644.464 C 302.661 647.125, 305.281 649.052, 305.587 648.747 C 305.892 648.441, 307.875 642.884, 309.992 636.399 C 313.841 624.606, 313.841 624.606, 309.367 619.553 C 288.412 595.885, 276.289 578.610, 266.518 558.500 C 251.629 527.857, 245.200 497.854, 246.286 464.093 C 247.636 422.145, 260.726 381.503, 285.771 341.500 C 296.200 324.842, 304.664 314.253, 318.689 300.315 C 331.689 287.396, 339.789 280.742, 355.353 270.201 C 367.534 261.949, 401.477 244.988, 411.239 242.274 C 414.524 241.361, 417.348 240.138, 417.516 239.557 C 418.788 235.154, 425.406 213.244, 425.764 212.250 C 426.361 210.593, 426.058 210.643, 414.765 214.059 M 444.992 212.172 C 444.974 214.984, 425.673 277.678, 411.027 322.500 C 403.022 346.997, 396.428 367.607, 388.149 394 C 383.050 410.259, 379.920 422.061, 380.472 422.954 C 381.277 424.257, 396.239 432.795, 398.374 433.171 C 400.964 433.626, 405.542 422.550, 412.064 400.051 C 414.862 390.398, 421.655 369.225, 427.159 353 C 432.663 336.775, 439.647 315.625, 442.678 306 C 445.710 296.375, 448.366 288.318, 448.582 288.097 C 449.156 287.505, 457.642 306.093, 458.424 309.656 C 458.871 311.691, 458.423 314.390, 457.066 317.833 C 455.952 320.660, 454.126 327.367, 453.010 332.736 C 451.127 341.795, 447.979 351.941, 431.831 401 C 426.519 417.137, 422.071 432.154, 422.017 434.131 C 422.008 434.477, 426.837 435.091, 432.750 435.494 C 438.663 435.897, 443.690 436.288, 443.921 436.363 C 445.256 436.797, 455.609 406.907, 462.578 382.500 C 466.122 370.090, 472.168 352.310, 473.890 349.231 C 474.463 348.208, 475.514 349.793, 477.477 354.642 C 481.517 364.620, 490.220 388.050, 496.926 407 C 500.137 416.075, 503.944 426.425, 505.386 430 C 508.008 436.500, 508.008 436.500, 519.504 436.189 C 525.827 436.019, 531 435.528, 531 435.099 C 531 432.111, 526.386 417.433, 522.452 407.904 C 517.996 397.113, 514.157 386.772, 506.526 365 C 500.781 348.607, 496.298 336.716, 493.522 330.500 C 490.697 324.177, 487.940 317.015, 479.898 295.118 C 471.727 272.866, 466.723 260.733, 463.788 256.054 C 460.453 250.736, 460.357 248.794, 463.072 241.538 C 465.144 236, 465.144 236, 473.875 236 C 482.606 236, 482.606 236, 484.929 243.250 C 487.375 250.885, 501.628 289.792, 512.497 318.500 C 516.037 327.850, 520.944 341.125, 523.401 348 C 525.858 354.875, 531.064 368.967, 534.970 379.315 C 542.072 398.130, 542.072 398.130, 537.536 404.164 C 532.432 410.954, 531.824 412.816, 535.500 410.408 C 536.875 409.507, 538 408.383, 538 407.911 C 538 407.438, 539.313 406.372, 540.918 405.542 C 543.836 404.033, 543.836 404.033, 546.579 411.267 C 557.149 439.143, 554.885 436.535, 568.213 436.190 C 580.200 435.879, 580.200 435.879, 579.519 432.190 C 579.145 430.160, 575.897 421.075, 572.302 412 C 568.706 402.925, 564.412 391.225, 562.760 386 C 561.108 380.775, 555.936 365.925, 551.266 353 C 546.596 340.075, 540.185 322.300, 537.020 313.500 C 533.855 304.700, 528.978 291.611, 526.184 284.414 C 523.389 277.217, 519.096 265.517, 516.644 258.414 C 514.192 251.311, 510.406 241, 508.231 235.500 C 506.056 230, 503.093 222.350, 501.646 218.500 C 499.015 211.500, 499.015 211.500, 472.007 211.172 C 450.063 210.906, 444.998 211.093, 444.992 212.172 M 583.491 259.746 C 583.081 286.556, 583.156 331.444, 583.659 359.496 C 584.572 410.500, 584.572 410.500, 588.786 418.728 C 591.383 423.798, 593 428.307, 593 430.478 C 593 434, 593 434, 605.250 433.985 C 619.964 433.967, 627.198 432.431, 637.897 427.052 C 642.241 424.867, 647.913 422.547, 650.500 421.896 C 655.204 420.711, 655.204 420.711, 654.852 316.819 C 654.544 225.817, 654.314 212.809, 653 211.979 C 652.133 211.431, 637.312 211.024, 617.869 211.015 C 584.237 211, 584.237 211, 583.491 259.746 M 608.245 322.250 C 608.500 409.500, 608.500 409.500, 614 409.281 C 617.025 409.160, 621.750 408.485, 624.500 407.781 C 629.500 406.500, 629.500 406.500, 629.807 334 C 629.976 294.125, 629.817 255.537, 629.454 248.250 C 628.795 235, 628.795 235, 618.392 235 C 607.989 235, 607.989 235, 608.245 322.250 M 675 259.375 C 675 265.081, 674.733 271.084, 674.407 272.714 C 673.868 275.410, 674.300 276.024, 679.157 279.475 C 693.048 289.343, 707.444 301.934, 716.558 312.185 C 732.765 330.415, 732.049 327.838, 723.394 336.813 C 715.980 344.500, 715.980 344.500, 712.740 340.512 C 703.493 329.132, 692.058 317.439, 684.903 312.048 C 680.489 308.722, 676.505 306, 676.050 306 C 675.595 306, 675.020 312.637, 674.773 320.750 C 674.325 335.500, 674.325 335.500, 679.479 341 C 687.525 349.586, 701.263 365.987, 705.023 371.495 C 708.753 376.958, 719.455 400.765, 722.799 411.037 C 732.060 439.484, 731.671 482.968, 721.893 512.163 C 715.687 530.695, 706.429 546.520, 694.572 558.862 C 673.480 580.819, 654.699 588.376, 618 589.672 C 601.354 590.261, 601.285 590.251, 579.208 584.121 C 567.003 580.733, 566.618 580.548, 535.554 563.215 C 529.398 559.780, 521.500 554.099, 514.828 548.306 C 504.047 538.947, 504.047 538.947, 490.598 539.622 C 474.881 540.411, 475.059 538.921, 488.678 555.644 C 497.886 566.952, 506.733 574.518, 524.500 586.280 C 541.094 597.266, 549.439 601.229, 567.030 606.477 C 591.706 613.838, 599.925 615.218, 620 615.369 C 635.998 615.489, 638.374 615.271, 647.688 612.829 C 660.192 609.551, 676.240 603.200, 684.396 598.301 C 718.970 577.535, 744.088 539.096, 751.570 495.500 C 753.804 482.477, 754.497 456.788, 753.041 440.909 C 750.806 416.539, 744.898 397.270, 731.214 369.721 C 722.776 352.734, 721.867 350.431, 724.297 352.184 C 728.110 354.937, 734.320 355.676, 737.288 353.731 C 741.290 351.109, 744.461 352.583, 748.301 358.851 C 773.144 399.408, 781.314 461.848, 768.472 513 C 760.501 544.747, 743.612 574.703, 718.222 602.127 C 708.389 612.748, 689.090 625.968, 678.235 629.518 C 675.339 630.465, 672.712 631.657, 672.398 632.166 C 672.083 632.675, 673.890 637.805, 676.413 643.566 C 678.936 649.327, 681 654.706, 681 655.520 C 681 658.004, 684.097 657.176, 693.500 652.179 C 738.911 628.047, 779.019 573.630, 791.980 518.564 C 797.173 496.502, 797.502 493.208, 797.475 463.500 C 797.451 437.223, 797.274 434.516, 794.609 419.500 C 791.190 400.247, 787.652 387.962, 780.350 370 C 764.905 332.004, 743.092 300.884, 713.555 274.700 C 703.248 265.564, 698.374 261.957, 683.765 252.652 C 675.104 247.136, 675 247.215, 675 259.375 M 535.169 256.601 C 541.506 269.701, 543.205 273.771, 544.184 278.195 C 544.830 281.113, 545.487 283.672, 545.646 283.883 C 545.963 284.307, 561.617 286.948, 564 286.980 C 565.272 286.997, 565.403 285.596, 564.859 277.750 C 564.507 272.663, 564.449 266.828, 564.731 264.784 C 565.363 260.214, 564.369 259.709, 551.500 258.060 C 546.550 257.426, 540.753 256.636, 538.617 256.304 C 536.442 255.967, 534.925 256.097, 535.169 256.601 M 403.500 272.057 C 367.410 288.494, 354.054 296.921, 331.271 317.632 C 322.598 325.516, 307.908 343.179, 299.081 356.335 C 284.358 378.280, 271.836 412.045, 266.404 444.453 C 264.046 458.518, 264.889 482.667, 268.379 501 C 275.273 537.217, 292.664 573.045, 314.395 595.799 C 320.410 602.097, 320.410 602.097, 324.159 590.799 C 326.221 584.584, 327.929 578.439, 327.954 577.142 C 327.981 575.779, 325.946 572.192, 323.133 568.642 C 313.364 556.314, 301.025 531.775, 295.659 514 C 291.297 499.554, 290.500 492.834, 290.500 470.500 C 290.500 446.087, 291.724 438.857, 300.145 413.500 C 308.019 389.793, 316.707 372.965, 329.631 356.383 C 336.518 347.547, 355.567 328.743, 364.745 321.721 C 371.674 316.420, 387.472 307.091, 394.836 303.954 C 400.395 301.585, 402 299.379, 402 294.110 C 402 292.592, 403.382 286.728, 405.072 281.080 C 406.762 275.432, 407.999 270.681, 407.822 270.523 C 407.645 270.365, 405.700 271.055, 403.500 272.057 M 372.458 361.332 C 364.275 365.704, 360.798 368.219, 351.680 376.358 C 337.456 389.055, 330.328 401.580, 326.419 420.745 C 322.371 440.589, 323.491 457.405, 329.933 473.491 C 333.882 483.355, 337.330 488.267, 345.825 496.132 C 357.395 506.844, 369.116 512.590, 391.500 518.522 C 401.219 521.097, 448.919 521.909, 539.500 521.041 C 617.216 520.297, 621.970 520.148, 630.500 518.190 C 654.981 512.573, 667.733 506.283, 680.535 493.513 C 688.422 485.645, 690.221 483.166, 694.688 474 C 704.422 454.025, 705.093 446.458, 699.531 419.385 C 695.623 400.370, 692.072 391.904, 684.118 382.644 C 679.785 377.600, 676.162 374.453, 675.526 375.181 C 675.373 375.356, 674.735 383.877, 674.110 394.115 C 672.858 414.608, 671.578 420.427, 666.741 427.622 C 662.687 433.650, 649.458 442.849, 639 446.910 C 621.642 453.651, 626.916 453.358, 516 453.745 C 446.391 453.988, 413.502 453.760, 409 453.003 C 378.271 447.836, 357 430.774, 357 411.291 C 357 403.995, 358.402 400.652, 364.249 394 C 369.520 388.005, 371.474 383.955, 373.942 373.913 C 375.079 369.286, 376.755 364.035, 377.665 362.244 C 378.576 360.453, 379.127 358.794, 378.890 358.557 C 378.653 358.320, 375.759 359.568, 372.458 361.332 M 469.724 419.750 C 467.419 424.950, 465.020 432.323, 465.006 434.250 C 465.003 434.663, 470.175 435, 476.500 435 C 484.124 435, 488 434.633, 488 433.911 C 488 433.313, 485.967 428.588, 483.483 423.411 C 479.112 414.304, 478.858 414, 475.620 414 C 472.508 414, 472.094 414.403, 469.724 419.750 M 347.546 451.334 C 351.500 475.102, 372.379 491.074, 406 496.049 C 416.180 497.556, 603.825 497.401, 616.496 495.875 C 627.866 494.507, 640.155 490.961, 650.773 485.985 C 665.332 479.163, 675.328 466.717, 676.603 453.827 C 676.998 449.828, 676.863 448.915, 676.062 450.166 C 674.489 452.621, 663.118 461.422, 658.495 463.763 C 650.969 467.574, 636.509 473.097, 628.500 475.221 C 620.690 477.292, 618.142 477.358, 521 477.988 C 466.275 478.344, 416.100 478.248, 409.500 477.776 C 393.376 476.622, 386.415 474.874, 374.129 468.895 C 365.384 464.638, 362.434 462.539, 355.306 455.507 C 346.852 447.167, 346.852 447.167, 347.546 451.334 M 698.500 501.743 C 687.143 514.034, 678.283 520.964, 665.227 527.771 C 658.611 531.220, 652.929 534.744, 652.599 535.602 C 651.610 538.181, 651.924 557.670, 653.001 560.502 C 654.125 563.460, 655.440 563.362, 662.500 559.794 C 674.529 553.716, 692.541 537.602, 699.393 526.788 C 706.628 515.370, 711.794 493.867, 707.250 494.084 C 706.288 494.130, 702.350 497.576, 698.500 501.743 M 360.737 528.750 C 360.463 529.712, 357.214 540.625, 353.516 553 C 349.817 565.375, 344.422 584.050, 341.526 594.500 C 338.631 604.950, 334.646 618.675, 332.671 625 C 330.697 631.325, 327.085 643.700, 324.644 652.500 C 322.204 661.300, 317.642 677.050, 314.506 687.500 C 311.370 697.950, 307.287 712.125, 305.434 719 C 303.580 725.875, 300.316 737.477, 298.180 744.783 C 296.045 752.088, 294.568 758.221, 294.899 758.410 C 296.084 759.089, 339.224 759.107, 350.747 758.433 C 362.508 757.745, 362.508 757.745, 372.723 726.623 C 378.342 709.505, 385.464 686.725, 388.550 676 C 391.636 665.275, 397.957 643.846, 402.596 628.379 C 411.064 600.143, 424.589 550.542, 426.290 541.487 C 426.855 538.473, 426.855 538.473, 415.678 538.828 C 408.976 539.041, 404.050 539.647, 403.375 540.341 C 402.163 541.590, 394.242 568.111, 388.544 590 C 382.425 613.505, 379.401 624.269, 376.605 632.500 C 375.110 636.900, 373.010 644.239, 371.939 648.809 C 370.867 653.378, 369.327 658.401, 368.515 659.971 C 365.877 665.073, 340.973 687.146, 341.012 684.348 C 341.043 682.119, 346.460 662.049, 350.416 649.512 C 356.877 629.028, 360.252 617.555, 365.420 598.500 C 367.956 589.150, 371.590 576.550, 373.497 570.500 C 375.404 564.450, 378.340 554.550, 380.022 548.500 C 381.704 542.450, 383.298 536.772, 383.565 535.882 C 383.951 534.597, 383.027 534.129, 379.074 533.604 C 376.336 533.241, 371.554 531.607, 368.447 529.972 C 361.849 526.502, 361.395 526.430, 360.737 528.750 M 550 539.088 C 550 541.354, 559.237 563.573, 560.831 565.142 C 561.797 566.091, 566.504 567.491, 572 568.462 C 577.225 569.385, 582.488 570.376, 583.696 570.665 C 585.790 571.165, 585.844 571.012, 584.876 567.345 C 584.318 565.230, 582.351 559.450, 580.506 554.500 C 578.660 549.550, 576.576 543.813, 575.874 541.750 C 574.598 538, 574.598 538, 562.299 538 C 554.104 538, 550 538.363, 550 539.088 M 611.295 539.021 C 605.133 539.326, 599.883 539.784, 599.629 540.038 C 598.287 541.380, 611.361 575.920, 614.754 580 C 614.983 580.275, 620.306 580.500, 626.583 580.500 C 632.859 580.500, 637.991 580.275, 637.986 580 C 637.936 577.143, 624.532 540.025, 623.174 538.983 C 622.803 538.699, 617.458 538.716, 611.295 539.021 M 442.310 553.410 C 436.630 564.819, 436.630 564.819, 443.739 573.193 C 456.325 588.018, 473.239 602.347, 494.650 616.326 C 517.915 631.514, 532.225 638.745, 553.883 646.253 C 586.910 657.704, 582.179 653.656, 592.731 679.500 C 597.896 692.150, 605.878 711.950, 610.468 723.500 C 618.814 744.499, 624.029 757.257, 624.478 757.775 C 625.170 758.573, 670.326 759.175, 681.348 758.534 C 694.196 757.787, 694.196 757.787, 693.726 755.144 C 693.468 753.690, 689.790 742.825, 685.553 731 C 677.612 708.838, 667.720 680.878, 658.410 654.280 C 655.480 645.909, 652.346 637.635, 651.445 635.894 C 649.808 632.729, 649.808 632.729, 643.154 633.361 C 625.019 635.083, 605.444 635.222, 597.500 633.684 C 587.931 631.832, 555.911 621.691, 544 616.741 C 513.127 603.910, 477.602 577.702, 464.194 557.863 C 459.789 551.346, 451.069 542, 449.394 542 C 448.601 542, 445.514 546.971, 442.310 553.410 M 450.461 620.154 C 445.847 624.638, 442.296 628.671, 442.571 629.115 C 443.640 630.845, 465.724 637.149, 475.351 638.472 C 487.744 640.176, 500 641.216, 500 640.565 C 500 640.300, 494.181 636.258, 487.068 631.582 C 479.955 626.907, 470.909 620.588, 466.965 617.541 C 463.020 614.493, 459.581 612, 459.322 612 C 459.063 612, 455.076 615.669, 450.461 620.154 M 416.662 650.238 C 414.648 655.950, 413 660.957, 413 661.364 C 413 662.783, 426.601 668.459, 441.500 673.258 C 449.750 675.915, 454.700 677.824, 452.500 677.499 C 450.300 677.175, 445.125 676.665, 441 676.367 C 433.500 675.824, 433.500 675.824, 426.750 680.160 C 422.634 682.804, 420 685.179, 420 686.248 C 420 687.211, 420.525 688, 421.167 688 C 421.808 688, 422.071 688.263, 421.750 688.584 C 421.011 689.323, 412.137 685.434, 409.860 683.374 C 408.272 681.936, 408.003 682.284, 406.164 688.162 C 405.073 691.648, 403.240 696.969, 402.090 699.986 C 400.941 703.003, 400 705.967, 400 706.573 C 400 707.733, 411.737 711.967, 428.537 716.868 C 440.393 720.327, 465.806 725.501, 478.500 727.040 C 490.688 728.518, 528.618 728.527, 538.500 727.054 C 550.705 725.234, 583.226 717.955, 585.141 716.614 C 586.699 715.523, 586.524 714.669, 582.978 706.073 C 580.856 700.928, 578.687 696.287, 578.160 695.760 C 577.547 695.147, 575.267 695.352, 571.850 696.327 C 568.907 697.168, 564.250 698.140, 561.500 698.489 C 558.750 698.838, 550.840 699.997, 543.923 701.065 C 530.508 703.135, 520.558 703.651, 501.789 703.250 C 490.078 703, 490.078 703, 489.789 694.277 C 489.524 686.285, 489.305 685.456, 487.172 684.396 C 485.334 683.482, 491.017 683.129, 514.172 682.722 C 542.277 682.227, 544.013 682.082, 555.797 679.256 C 562.560 677.634, 568.530 675.870, 569.062 675.338 C 570.934 673.466, 563.912 667.268, 557 664.689 C 538.850 657.917, 541.284 658.219, 514.500 659.417 C 499.836 660.072, 494.113 659.908, 483.621 658.529 C 467.948 656.469, 449.860 651.627, 434.776 645.455 C 428.574 642.917, 422.786 640.618, 421.912 640.346 C 420.671 639.960, 419.526 642.119, 416.662 650.238 M 611.808 657 C 609.116 657.500, 609.116 657.500, 612.902 667.500 C 618.662 682.717, 625.183 696.217, 626.255 695.145 C 626.829 694.571, 626.775 693.448, 626.115 692.214 C 624.635 689.449, 627.422 686.103, 635.086 681.448 C 640.811 677.970, 641.078 677.633, 640.436 674.709 C 640.064 673.016, 638.306 668.226, 636.528 664.065 C 633.297 656.500, 633.297 656.500, 623.898 656.500 C 618.729 656.500, 613.289 656.725, 611.808 657" stroke="none" fill="#242928" fill-rule="evenodd"/></svg>